<?xml version="1.0" encoding="UTF-8" standalone="no"?>
<!DOCTYPE svg PUBLIC "-//W3C//DTD SVG 1.1//EN" "http://www.w3.org/Graphics/SVG/1.1/DTD/svg11.dtd">
<svg width="100%" height="100%" viewBox="0 0 906 844" version="1.1" xmlns="http://www.w3.org/2000/svg" xmlns:xlink="http://www.w3.org/1999/xlink" xml:space="preserve" xmlns:serif="http://www.serif.com/" style="fill-rule:evenodd;clip-rule:evenodd;stroke-linejoin:round;stroke-miterlimit:2;">
    <g id="MK">
        <g id="dark">
            <path d="M775.046,254.896L666.09,191.59L754.59,141.849L862.899,205.156L775.046,254.896Z" style="fill:rgb(21,44,209);"/>
            <path d="M532.084,114.677L442.775,64.89L531.318,13.9L619.344,64.718L532.084,114.677Z" style="fill:rgb(21,44,209);"/>
            <path d="M86.876,269.771L174.945,218.954L264.737,270.417L176.022,320.804L86.876,269.771Z" style="fill:rgb(21,44,209);"/>
            <path d="M609.459,416.608L697.097,366.436L863.33,718.928L775.046,770.391L609.459,416.608Z" style="fill:rgb(21,44,209);"/>
        </g>
        <g id="medium">
            <path d="M176.022,320.804L175.105,835.32L86.174,784.072L86.82,269.869L176.022,320.804Z" style="fill:rgb(0,17,144);"/>
            <path d="M396.937,397.609L319.448,323.276L442.723,64.613L532.084,114.677L396.937,397.609Z" style="fill:rgb(0,17,144);"/>
            <path d="M531.659,320L666.09,191.59L775.046,254.896L609.459,416.608L775.046,770.176L665.013,707.3L531.941,427.374L531.295,630.428L441.503,577.673L440.642,478.191L531.229,283.61L531.659,320Z" style="fill:rgb(0,17,144);"/>
            <path d="M398.156,569.996L308.772,518.808L265.19,477.293L264.887,440.608L398.156,569.996Z" style="fill:rgb(0,17,144);"/>
        </g>
        <g id="light">
            <path d="M862.899,205.156L697.097,366.436L609.459,416.608L775.046,254.896L862.899,205.156Z" style="fill:rgb(13,40,242);"/>
            <path d="M531.941,427.374L607.13,585.646L531.295,630.428L531.941,427.374Z" style="fill:rgb(13,40,242);"/>
            <path d="M619.513,63.975L619.944,234.299L531.659,320L531.229,283.61L398.156,569.996L264.887,440.608L264.31,783.934L175.017,835.266L176.143,320.751L264.87,270.535L396.937,397.609L531.554,115.594L619.513,63.975Z" style="fill:rgb(13,40,242);"/>
        </g>
    </g>
</svg>
