<?xml version="1.0" standalone="no"?>
<!DOCTYPE svg PUBLIC "-//W3C//DTD SVG 20010904//EN"
 "http://www.w3.org/TR/2001/REC-SVG-20010904/DTD/svg10.dtd">
<svg version="1.0" xmlns="http://www.w3.org/2000/svg"
 width="552.000000pt" height="552.000000pt" viewBox="0 0 552.000000 552.000000"
 preserveAspectRatio="xMidYMid meet">
<metadata>
Created by potrace 1.11, written by Peter Selinger 2001-2013
</metadata>
<g transform="translate(0.000000,552.000000) scale(0.100000,-0.100000)"
fill="#000000" stroke="none">
<path d="M140 5398 c-18 -13 -43 -36 -54 -51 l-21 -28 -3 -2142 -2 -2142 22
-45 c13 -24 36 -53 51 -64 28 -21 39 -21 801 -24 l773 -2 17 67 c10 38 35 110
56 161 l38 92 -719 0 -719 0 0 1945 0 1945 1370 0 1370 0 0 -45 0 -45 160 0
160 0 0 138 c0 123 -2 142 -22 182 -14 27 -36 50 -58 62 -33 17 -105 18 -1611
18 l-1576 0 -33 -22z"/>
<path d="M2837 4800 c-71 -12 -170 -63 -220 -112 -90 -91 -141 -251 -117 -371
6 -34 23 -85 36 -114 28 -58 115 -144 179 -175 l40 -20 3 -544 c2 -513 1 -550
-17 -627 -70 -291 -333 -914 -710 -1676 -34 -69 -74 -163 -89 -210 -24 -78
-27 -100 -26 -231 0 -124 3 -154 22 -204 75 -200 244 -330 477 -366 48 -7 460
-10 1305 -8 1143 3 1239 5 1295 21 232 67 384 224 430 442 40 191 6 324 -186
706 -262 524 -462 976 -569 1285 -94 272 -90 233 -90 860 l0 551 50 23 c64 30
143 113 178 187 24 52 27 69 27 168 0 103 -2 114 -32 177 -60 126 -170 213
-302 238 -64 12 -1612 12 -1684 0z m1671 -316 c29 -20 52 -65 52 -102 0 -42
-33 -78 -89 -97 -60 -19 -125 -74 -154 -129 -22 -41 -22 -44 -25 -626 -2 -401
0 -610 8 -665 40 -274 297 -909 676 -1667 150 -301 174 -367 174 -472 0 -92
-34 -165 -98 -213 -88 -67 -17 -64 -1398 -61 l-1249 3 -45 24 c-92 48 -139
114 -147 212 -9 97 18 188 118 391 374 757 619 1343 707 1688 l26 105 -1 614
-2 614 -25 52 c-27 54 -79 99 -148 128 -95 40 -118 119 -54 183 l34 34 809 0
c716 0 811 -2 831 -16z"/>
<path d="M3510 1630 l0 -160 365 0 365 0 0 160 0 160 -365 0 -365 0 0 -160z"/>
<path d="M3510 1060 l0 -160 540 0 540 0 0 160 0 160 -540 0 -540 0 0 -160z"/>
<path d="M830 4500 l0 -160 724 0 723 0 6 91 c4 55 16 118 31 160 l24 69 -754
0 -754 0 0 -160z"/>
<path d="M1060 4005 l0 -155 690 0 690 0 0 61 c0 54 -4 65 -34 102 -18 23 -45
66 -60 95 l-26 52 -630 0 -630 0 0 -155z"/>
<path d="M1130 2530 l0 -560 160 0 160 0 0 560 0 560 -160 0 -160 0 0 -560z"/>
<path d="M1670 2375 l0 -405 160 0 160 0 0 405 0 405 -160 0 -160 0 0 -405z"/>
<path d="M600 2205 l0 -235 155 0 155 0 0 235 0 235 -155 0 -155 0 0 -235z"/>
<path d="M600 1595 l0 -155 666 2 667 3 73 153 73 152 -740 0 -739 0 0 -155z"/>
</g>
</svg>
