<?xml version="1.0" standalone="no"?>
<!DOCTYPE svg PUBLIC "-//W3C//DTD SVG 20010904//EN"
 "http://www.w3.org/TR/2001/REC-SVG-20010904/DTD/svg10.dtd">
<svg version="1.0" xmlns="http://www.w3.org/2000/svg"
 width="80.000000pt" height="80.000000pt" viewBox="0 0 80.000000 80.000000"
 preserveAspectRatio="xMidYMid meet">

<g transform="translate(0.000000,80.000000) scale(0.100000,-0.100000)"
fill="#000000" stroke="none">
<path d="M137 673 c-4 -3 -7 -109 -7 -235 l0 -228 85 0 c69 0 85 3 85 15 0 12
-14 15 -70 15 l-70 0 2 203 3 202 139 3 c86 2 143 -1 150 -8 17 -17 26 -11 26
15 l0 25 -168 0 c-93 0 -172 -3 -175 -7z"/>
<path d="M392 604 c-26 -18 -29 -46 -6 -65 13 -10 15 -28 12 -84 -3 -57 -12
-87 -46 -159 -74 -156 -65 -166 145 -166 208 0 214 8 137 180 -45 99 -59 205
-30 229 23 19 20 47 -6 65 -31 22 -175 22 -206 0z m184 -43 c-15 -17 -17 -34
-14 -103 3 -73 9 -94 47 -175 24 -51 41 -99 38 -108 -9 -22 -292 -23 -301 0
-3 8 14 56 37 107 35 80 42 105 45 176 3 53 0 88 -7 95 -22 22 -9 27 81 27 90
0 91 0 74 -19z"/>
<path d="M480 285 c0 -11 11 -15 40 -15 29 0 40 4 40 15 0 11 -11 15 -40 15
-29 0 -40 -4 -40 -15z"/>
<path d="M480 225 c0 -12 13 -15 60 -15 47 0 60 3 60 15 0 12 -13 15 -60 15
-47 0 -60 -3 -60 -15z"/>
<path d="M210 585 c0 -12 14 -15 69 -15 52 0 70 4 75 15 4 13 -7 15 -69 15
-60 0 -75 -3 -75 -15z"/>
<path d="M232 533 c3 -15 16 -19 76 -21 71 -3 72 -2 60 18 -11 17 -23 20 -76
20 -55 0 -63 -2 -60 -17z"/>
<path d="M240 381 c0 -55 2 -61 20 -61 19 0 21 5 18 57 -2 46 -7 59 -20 61
-16 3 -18 -5 -18 -57z"/>
<path d="M300 365 c0 -33 4 -45 15 -45 11 0 15 12 15 45 0 33 -4 45 -15 45
-11 0 -15 -12 -15 -45z"/>
<path d="M190 345 c0 -16 6 -25 15 -25 9 0 15 9 15 25 0 16 -6 25 -15 25 -9 0
-15 -9 -15 -25z"/>
<path d="M185 290 c-13 -21 8 -30 70 -30 59 0 75 8 75 36 0 9 -139 3 -145 -6z"/>
</g>
</svg>
